# xmcd CD database file
#
# Track frame offsets:
#	182
#	14177
#	41780
#	58020
#	80592
#	99875
#	121180
#	146460
#	165220
#	182620
#	206007
#	228182
#	235885
#
# Disc length: 3414 seconds
#
# Revision: 0
# Processed by: cddbd v1.4PL0 Copyright (c) Steve Scherf et al.
# Submitted via: CDex 1.50Beta6
#
DISCID=a40d540d
DTITLE=Jan James - Last Train
DYEAR=1994
DGENRE=Blues
TTITLE0=Back On My Feet Again
TTITLE1=Carry On
TTITLE2=Just About A Mile
TTITLE3=Blame It On Time
TTITLE4=What Kind Of Man
TTITLE5=One Burnin' Light
TTITLE6=Roll Me
TTITLE7=Satisfy Me
TTITLE8=Don't Cross The Line
TTITLE9=Time Won't Let Me Down
TTITLE10=Last Train
TTITLE11=Help Me
TTITLE12=It's Over
EXTD=YEAR: 1994
EXTT0=
EXTT1=
EXTT2=
EXTT3=
EXTT4=
EXTT5=
EXTT6=
EXTT7=
EXTT8=
EXTT9=
EXTT10=
EXTT11=
EXTT12=
PLAYORDER=
